<?xml version="1.0" encoding="UTF-8" standalone="no"?>
<!DOCTYPE svg PUBLIC "-//W3C//DTD SVG 1.1//EN" "http://www.w3.org/Graphics/SVG/1.1/DTD/svg11.dtd">
<svg width="100%" height="100%" viewBox="0 0 512 512" version="1.1" xmlns="http://www.w3.org/2000/svg" xmlns:xlink="http://www.w3.org/1999/xlink" xml:space="preserve" style="fill-rule:evenodd;clip-rule:evenodd;stroke-linejoin:round;stroke-miterlimit:1.41421;">
    <path d="M256,0C397.29,0 512,114.71 512,256C512,397.29 397.29,512 256,512C114.71,512 0,397.29 0,256C0,114.71 114.71,0 256,0ZM318.716,93.421L282.406,93.421C281.996,93.422 281.871,93.975 282.24,94.152L356.824,129.909C357.245,130.11 357.012,130.736 356.56,130.618C323.017,121.858 289.131,117.424 255.67,117.424C222.317,117.424 188.541,121.831 155.101,130.535C154.646,130.653 154.415,130.02 154.842,129.823L232.043,94.156C232.417,93.983 232.295,93.424 231.882,93.423L192.625,93.423C160.387,94.706 123.949,97.601 98.118,109.334L94.98,110.759C94.889,110.8 94.817,110.875 94.781,110.968L93.517,114.174C67.081,181.16 59.569,294.879 67.58,366.12L68,369.856L70.972,372.161C112.27,404.185 167.491,420.65 202.23,425.019L206.722,425.584C208.182,425.768 209.577,424.924 210.093,423.546L232.703,363.139C233.408,361.256 232.208,359.2 230.222,358.888L223.284,357.798C199.091,353.997 164.814,343.921 135.847,317.651C135.229,317.09 135.825,316.082 136.607,316.372C138.961,317.247 141.557,318.261 144.23,319.305C150.78,321.864 157.554,324.51 161.974,325.56C193.038,332.946 224.539,336.692 255.668,336.692L255.668,336.138L255.733,336.138L255.737,336.692C286.803,336.692 318.303,332.947 349.364,325.56C353.786,324.509 360.56,321.864 367.111,319.304C369.782,318.26 372.377,317.246 374.73,316.372C375.512,316.082 376.108,317.091 375.49,317.651C346.62,343.805 312.3,353.855 288.053,357.653L281.117,358.739C279.131,359.05 277.929,361.104 278.633,362.987L301.247,423.543C301.762,424.922 303.158,425.767 304.618,425.583L309.114,425.018C343.851,420.649 399.068,404.184 440.367,372.16L443.339,369.855L443.759,366.119C451.771,294.879 444.259,181.159 417.824,114.172L416.56,110.966C416.523,110.874 416.452,110.798 416.361,110.757L413.223,109.332C387.391,97.599 350.955,94.704 318.716,93.421ZM181.874,278.634C153.791,281.138 130.362,257.711 132.863,229.628C134.781,208.101 152.115,190.765 173.643,188.845C201.726,186.341 225.155,209.768 222.654,237.851C220.735,259.378 203.401,276.714 181.874,278.634ZM337.7,278.634C309.617,281.138 286.188,257.711 288.689,229.628C290.607,208.101 307.941,190.765 329.469,188.845C357.551,186.341 380.981,209.768 378.48,237.851C376.561,259.378 359.227,276.714 337.7,278.634Z" style="fill:white;"/>
</svg>
